<svg width="154" height="26" viewBox="0 0 154 26" fill="none" xmlns="http://www.w3.org/2000/svg">
<path d="M0.767639 15.7527C0.767639 13.8854 1.10032 12.2542 1.76569 10.859C2.45252 9.46391 3.37544 8.39074 4.53447 7.63952C5.71496 6.8883 7.02423 6.51269 8.46227 6.51269C9.70715 6.51269 10.7803 6.75952 11.6818 7.25318C12.5833 7.74684 13.2808 8.4122 13.7745 9.24927V6.73805H20.0847V24.7995H13.7745V22.2883C13.2808 23.1254 12.5725 23.7907 11.6496 24.2844C10.7481 24.7781 9.68569 25.0249 8.46227 25.0249C7.02423 25.0249 5.71496 24.6493 4.53447 23.8981C3.37544 23.1468 2.45252 22.0737 1.76569 20.6785C1.10032 19.262 0.767639 17.62 0.767639 15.7527ZM13.7745 15.7527C13.7745 14.5937 13.4525 13.6815 12.8086 13.0161C12.1862 12.3507 11.4135 12.0181 10.4906 12.0181C9.54618 12.0181 8.76276 12.3507 8.14032 13.0161C7.51788 13.66 7.20666 14.5722 7.20666 15.7527C7.20666 16.9117 7.51788 17.8346 8.14032 18.5215C8.76276 19.1868 9.54618 19.5195 10.4906 19.5195C11.4135 19.5195 12.1862 19.1868 12.8086 18.5215C13.4525 17.8561 13.7745 16.9332 13.7745 15.7527Z" fill="black"/>
<path d="M29.9907 0.975128V24.7995H23.6805V0.975128H29.9907Z" fill="black"/>
<path d="M41.9872 25.0249C40.1843 25.0249 38.5638 24.6493 37.1257 23.8981C35.7092 23.1468 34.5931 22.0737 33.7775 20.6785C32.9618 19.2834 32.554 17.6415 32.554 15.7527C32.554 13.8854 32.9618 12.2542 33.7775 10.859C34.6145 9.46391 35.7414 8.39074 37.1579 7.63952C38.596 6.8883 40.2165 6.51269 42.0194 6.51269C43.8223 6.51269 45.4321 6.8883 46.8487 7.63952C48.2867 8.39074 49.4135 9.46391 50.2292 10.859C51.0662 12.2542 51.4848 13.8854 51.4848 15.7527C51.4848 17.62 51.0662 19.262 50.2292 20.6785C49.4135 22.0737 48.2867 23.1468 46.8487 23.8981C45.4106 24.6493 43.7901 25.0249 41.9872 25.0249ZM41.9872 19.5517C42.8672 19.5517 43.597 19.2298 44.1765 18.5859C44.7775 17.9205 45.0779 16.9761 45.0779 15.7527C45.0779 14.5293 44.7775 13.5956 44.1765 12.9517C43.597 12.3078 42.8779 11.9859 42.0194 11.9859C41.1609 11.9859 40.4418 12.3078 39.8623 12.9517C39.2828 13.5956 38.9931 14.5293 38.9931 15.7527C38.9931 16.9976 39.2721 17.942 39.8301 18.5859C40.3882 19.2298 41.1072 19.5517 41.9872 19.5517Z" fill="black"/>
<path d="M53.0218 15.7527C53.0218 13.8854 53.4082 12.2542 54.1809 10.859C54.9535 9.46391 56.0267 8.39074 57.4004 7.63952C58.7955 6.8883 60.3838 6.51269 62.1652 6.51269C64.4618 6.51269 66.3935 7.14586 67.9604 8.4122C69.5272 9.65708 70.536 11.4063 70.9867 13.66H64.2901C63.9038 12.4795 63.1526 11.8893 62.0365 11.8893C61.2423 11.8893 60.6091 12.222 60.137 12.8873C59.6862 13.5312 59.4609 14.4864 59.4609 15.7527C59.4609 17.019 59.6862 17.9849 60.137 18.6502C60.6091 19.3156 61.2423 19.6483 62.0365 19.6483C63.174 19.6483 63.9253 19.0581 64.2901 17.8776H70.9867C70.536 20.1098 69.5272 21.859 67.9604 23.1254C66.3935 24.3917 64.4618 25.0249 62.1652 25.0249C60.3838 25.0249 58.7955 24.6493 57.4004 23.8981C56.0267 23.1468 54.9535 22.0737 54.1809 20.6785C53.4082 19.2834 53.0218 17.6415 53.0218 15.7527Z" fill="black"/>
<path d="M72.5779 15.7527C72.5779 13.8854 72.9105 12.2542 73.5759 10.859C74.2627 9.46391 75.1857 8.39074 76.3447 7.63952C77.5252 6.8883 78.8344 6.51269 80.2725 6.51269C81.5174 6.51269 82.5905 6.75952 83.492 7.25318C84.3935 7.74684 85.091 8.4122 85.5847 9.24927V6.73805H91.8949V24.7995H85.5847V22.2883C85.091 23.1254 84.3827 23.7907 83.4598 24.2844C82.5583 24.7781 81.4959 25.0249 80.2725 25.0249C78.8344 25.0249 77.5252 24.6493 76.3447 23.8981C75.1857 23.1468 74.2627 22.0737 73.5759 20.6785C72.9105 19.262 72.5779 17.62 72.5779 15.7527ZM85.5847 15.7527C85.5847 14.5937 85.2627 13.6815 84.6188 13.0161C83.9964 12.3507 83.2237 12.0181 82.3008 12.0181C81.3564 12.0181 80.573 12.3507 79.9505 13.0161C79.3281 13.66 79.0169 14.5722 79.0169 15.7527C79.0169 16.9117 79.3281 17.8346 79.9505 18.5215C80.573 19.1868 81.3564 19.5195 82.3008 19.5195C83.2237 19.5195 83.9964 19.1868 84.6188 18.5215C85.2627 17.8561 85.5847 16.9332 85.5847 15.7527Z" fill="black"/>
<path d="M94.4605 15.7527C94.4605 13.8854 94.7932 12.2542 95.4585 10.859C96.1454 9.46391 97.079 8.39074 98.2595 7.63952C99.44 6.8883 100.749 6.51269 102.187 6.51269C103.346 6.51269 104.377 6.75952 105.278 7.25318C106.201 7.72537 106.92 8.38001 107.435 9.21708V0.975128H113.778V24.7995H107.435V22.2883C106.941 23.1254 106.244 23.7907 105.342 24.2844C104.441 24.7781 103.379 25.0249 102.155 25.0249C100.717 25.0249 99.4078 24.6493 98.2273 23.8981C97.0683 23.1468 96.1454 22.0737 95.4585 20.6785C94.7932 19.262 94.4605 17.62 94.4605 15.7527ZM107.467 15.7527C107.467 14.5937 107.145 13.6815 106.501 13.0161C105.879 12.3507 105.106 12.0181 104.183 12.0181C103.239 12.0181 102.456 12.3507 101.833 13.0161C101.211 13.66 100.899 14.5722 100.899 15.7527C100.899 16.9117 101.211 17.8346 101.833 18.5215C102.456 19.1868 103.239 19.5195 104.183 19.5195C105.106 19.5195 105.879 19.1868 106.501 18.5215C107.145 17.8561 107.467 16.9332 107.467 15.7527Z" fill="black"/>
<path d="M125.776 25.0249C123.973 25.0249 122.353 24.6493 120.915 23.8981C119.498 23.1468 118.382 22.0737 117.567 20.6785C116.751 19.2834 116.343 17.6415 116.343 15.7527C116.343 13.8854 116.751 12.2542 117.567 10.859C118.404 9.46391 119.53 8.39074 120.947 7.63952C122.385 6.8883 124.006 6.51269 125.808 6.51269C127.611 6.51269 129.221 6.8883 130.638 7.63952C132.076 8.39074 133.203 9.46391 134.018 10.859C134.855 12.2542 135.274 13.8854 135.274 15.7527C135.274 17.62 134.855 19.262 134.018 20.6785C133.203 22.0737 132.076 23.1468 130.638 23.8981C129.2 24.6493 127.579 25.0249 125.776 25.0249ZM125.776 19.5517C126.656 19.5517 127.386 19.2298 127.966 18.5859C128.567 17.9205 128.867 16.9761 128.867 15.7527C128.867 14.5293 128.567 13.5956 127.966 12.9517C127.386 12.3078 126.667 11.9859 125.808 11.9859C124.95 11.9859 124.231 12.3078 123.651 12.9517C123.072 13.5956 122.782 14.5293 122.782 15.7527C122.782 16.9976 123.061 17.942 123.619 18.5859C124.177 19.2298 124.896 19.5517 125.776 19.5517Z" fill="black"/>
<path d="M145.536 25.0249C143.905 25.0249 142.445 24.7566 141.157 24.22C139.891 23.662 138.882 22.9107 138.131 21.9664C137.401 21.0005 136.993 19.9166 136.907 18.7146H143.025C143.11 19.2942 143.379 19.7449 143.829 20.0668C144.28 20.3888 144.838 20.5498 145.504 20.5498C146.019 20.5498 146.426 20.4424 146.727 20.2278C147.027 20.0132 147.178 19.7342 147.178 19.3907C147.178 18.94 146.931 18.6073 146.437 18.3927C145.944 18.1781 145.128 17.942 143.99 17.6844C142.703 17.4268 141.629 17.1371 140.771 16.8151C139.912 16.4932 139.161 15.9673 138.517 15.2376C137.895 14.5078 137.584 13.5205 137.584 12.2756C137.584 11.2024 137.873 10.2366 138.453 9.37805C139.032 8.49805 139.88 7.80049 140.996 7.28537C142.134 6.77025 143.497 6.51269 145.085 6.51269C147.446 6.51269 149.303 7.0922 150.655 8.25123C152.007 9.41025 152.79 10.9342 153.005 12.8229H147.307C147.199 12.2434 146.942 11.8034 146.534 11.5029C146.147 11.181 145.622 11.02 144.956 11.02C144.441 11.02 144.044 11.1166 143.765 11.3098C143.507 11.5029 143.379 11.7712 143.379 12.1146C143.379 12.5439 143.626 12.8766 144.119 13.1127C144.613 13.3273 145.407 13.5527 146.502 13.7888C147.811 14.0678 148.895 14.379 149.753 14.7224C150.633 15.0659 151.395 15.6239 152.039 16.3966C152.705 17.1478 153.037 18.1781 153.037 19.4873C153.037 20.539 152.726 21.4834 152.104 22.3205C151.503 23.1576 150.633 23.8229 149.496 24.3166C148.38 24.7888 147.06 25.0249 145.536 25.0249Z" fill="black"/>
</svg>
