<svg width="20" height="18" viewBox="0 0 20 18" fill="none" xmlns="http://www.w3.org/2000/svg">
<path d="M19.897 14.2761L16.5954 17.7255C16.5236 17.8005 16.4368 17.8602 16.3403 17.901C16.2438 17.9419 16.1397 17.9629 16.0345 17.9629H0.383293C0.308612 17.9629 0.235558 17.9416 0.173109 17.9017C0.110659 17.8618 0.0615326 17.805 0.0317655 17.7383C0.00199847 17.6716 -0.00711249 17.5978 0.00555211 17.5261C0.0182167 17.4544 0.0521051 17.3879 0.103054 17.3347L3.40715 13.8852C3.47873 13.8105 3.56528 13.7509 3.66146 13.7101C3.75766 13.6692 3.86142 13.6481 3.96635 13.6479H19.6167C19.6914 13.6479 19.7644 13.6692 19.8269 13.7091C19.8893 13.749 19.9384 13.8058 19.9683 13.8725C19.998 13.9392 20.0071 14.0129 19.9944 14.0846C19.9818 14.1564 19.9479 14.2229 19.897 14.2761ZM16.5954 7.32984C16.5236 7.25491 16.4368 7.19517 16.3403 7.15434C16.2438 7.11353 16.1397 7.09248 16.0345 7.09254H0.383293C0.308612 7.09254 0.235558 7.11378 0.173109 7.15368C0.110659 7.19359 0.0615326 7.25038 0.0317655 7.31709C0.00199847 7.38382 -0.00711249 7.45756 0.00555211 7.52927C0.0182167 7.60095 0.0521051 7.66749 0.103054 7.72069L3.40715 11.1702C3.47873 11.2449 3.56528 11.3045 3.66146 11.3453C3.75766 11.3861 3.86142 11.4073 3.96635 11.4075H19.6167C19.6914 11.4075 19.7644 11.3862 19.8269 11.3463C19.8893 11.3064 19.9384 11.2496 19.9683 11.1829C19.998 11.1162 20.0071 11.0424 19.9944 10.9707C19.9818 10.899 19.9479 10.8325 19.897 10.7793L16.5954 7.32984ZM0.383293 4.85208H16.0345C16.1397 4.85212 16.2438 4.83109 16.3403 4.79026C16.4368 4.74943 16.5236 4.68969 16.5954 4.61476L19.897 1.16529C19.9479 1.1121 19.9818 1.04557 19.9944 0.973867C20.0071 0.902168 19.998 0.828428 19.9683 0.761705C19.9384 0.694983 19.8893 0.638184 19.8269 0.598288C19.7644 0.558392 19.6914 0.537138 19.6167 0.537135H3.96635C3.86142 0.537309 3.75766 0.558462 3.66146 0.599283C3.56528 0.640105 3.47873 0.699726 3.40715 0.774458L0.103905 4.22392C0.0530061 4.27705 0.0191326 4.34353 0.0064393 4.41513C-0.00625404 4.48676 0.00278463 4.56044 0.0324467 4.62713C0.0621089 4.69382 0.111105 4.75062 0.173426 4.79058C0.235748 4.83054 0.308685 4.8519 0.383293 4.85208Z" fill="url(#paint0_linear_351_52)"/>
<defs>
<linearGradient id="paint0_linear_351_52" x1="1.68823" y1="18.3782" x2="17.6224" y2="-0.0601383" gradientUnits="userSpaceOnUse">
<stop offset="0.08" stop-color="#9945FF"/>
<stop offset="0.3" stop-color="#8752F3"/>
<stop offset="0.5" stop-color="#5497D5"/>
<stop offset="0.6" stop-color="#43B4CA"/>
<stop offset="0.72" stop-color="#28E0B9"/>
<stop offset="0.97" stop-color="#19FB9B"/>
</linearGradient>
</defs>
</svg>
